{"title":"The Musketeers S01E06 The Exiles x264 AAC [GWC].mp4","uid":9689422,"size":217706979,"categoryP":"video","categoryS":"tv_shows","magnet":"?xt=urn:btih:fb8d1fdbedd8b1252797b74729e2d0c1a23085e0&amp;dn=The+Musketeers+S01E06+The+Exiles+x264+AAC+%5BGWC%5D.mp4&amp;tr=udp%3A%2F%2Ftracker.openbittorrent.com%3A80&amp;tr=udp%3A%2F%2Fopen.demonii.com%3A1337&amp;tr=udp%3A%2F%2Ftracker.coppersurfer.tk%3A6969&amp;tr=udp%3A%2F%2Fexodus.desync.com%3A6969","seeders":1,"leechers":0,"uploader":"canc232","files":1,"time":1393836499,"description":"The Musketeers S01E06 The Exiles x264 AAC [GWC]\n\nSTORYLINE :\nSet on the streets of 17th century Paris, series gives a contemporary take on the classic story about a group of highly trained soldiers and bodyguards assigned to protect King and country. \n\nSCREENS : &lt;a href=&quot;\nhttp://i.imgur.com/ugv2KrM.jpg&quot; rel=&quot;nofollow&quot; target=&quot;_NEW&quot;&gt;\nhttp://i.imgur.com/ugv2KrM.jpg&lt;/a&gt; &lt;a href=&quot;\nhttp://i.imgur.com/TwGvPFL.jpg&quot; rel=&quot;nofollow&quot; target=&quot;_NEW&quot;&gt;\nhttp://i.imgur.com/TwGvPFL.jpg&lt;/a&gt; &lt;a href=&quot;\nhttp://i.imgur.com/TwGvPFL.jpg&quot; rel=&quot;nofollow&quot; target=&quot;_NEW&quot;&gt;\nhttp://i.imgur.com/TwGvPFL.jpg&lt;/a&gt;\n\nMEDIA INFO :\nGeneral \nFormat : MPEG-4 \nFormat profile : Base Media \nFile size : 208 MiB \nDuration : 55mn 7s \nOverall bit rate mode : Variable \nOverall bit rate : 527 Kbps \n\nVideo \nFormat : AVC \nFormat profile : &lt;a class=&quot;__cf_email__&quot; href=&quot;/cdn-cgi/l/email-protection&quot; data-cfemail=&quot;9fd7f6f8f7dfd3acb1af&quot;&gt;[email&amp;#160;protected]&lt;/a&gt;&lt;script cf-hash='f9e31' type=&quot;text/javascript&quot;&gt;\n/* &lt;![CDATA[ */!function(){try{var t=&quot;currentScript&quot;in document?document.currentScript:function(){for(var t=document.getElementsByTagName(&quot;script&quot;),e=t.length;e--;)if(t[e].getAttribute(&quot;cf-hash&quot;))return t[e]}();if(t&amp;&amp;t.previousSibling){var e,r,n,i,c=t.previousSibling,a=c.getAttribute(&quot;data-cfemail&quot;);if(a){for(e=&quot;&quot;,r=parseInt(a.substr(0,2),16),n=2;a.length-n;n+=2)i=parseInt(a.substr(n,2),16)^r,e+=String.fromCharCode(i);e=document.createTextNode(e),c.parentNode.replaceChild(e,c)}}}catch(u){}}();/* ]]&gt; */&lt;/script&gt; \nFormat settings, CABAC : Yes \nFormat settings, ReFrames : 4 frames \nDuration : 55mn 6s \nBit rate : 463 Kbps \nMaximum bit rate : 2 572 Kbps \nWidth : 720 pixels \nHeight : 404 pixels \nFrame rate mode : Constant \nFrame rate : 25.000 fps \nStream size : 183 MiB (88%) \nTitle : The Musketeers S01E06 The Exiles x264 AAC [GWC] \nWriting library : x264 core\n\nAudio \nFormat : AAC \nFormat profile : HE-AAC / LC \nDuration : 55mn 7s \nBit rate mode : Variable \nChannel(s) : 2 channels \nSampling rate : 48.0 KHz / 24.0 KHz \nCompression mode : Lossy \nStream size : 23.7 MiB (11%) \nTitle : The Musketeers S01E06 The Exiles x264 AAC [GWC] \nLanguage : English \n","torrent":{"xt":"urn:btih:fb8d1fdbedd8b1252797b74729e2d0c1a23085e0","amp;dn":"The+Musketeers+S01E06+The+Exiles+x264+AAC+%5BGWC%5D.mp4","amp;tr":["udp%3A%2F%2Ftracker.openbittorrent.com%3A80","udp%3A%2F%2Fopen.demonii.com%3A1337","udp%3A%2F%2Ftracker.coppersurfer.tk%3A6969","udp%3A%2F%2Fexodus.desync.com%3A6969"],"infoHash":"fb8d1fdbedd8b1252797b74729e2d0c1a23085e0","infoHashBuffer":{"type":"Buffer","data":[251,141,31,219,237,216,177,37,39,151,183,71,41,226,208,193,162,48,133,224]},"announce":[],"urlList":[]}}